<svg width="16" height="16" viewBox="0 0 16 16" fill="none" xmlns="http://www.w3.org/2000/svg">
<g id="Frame">
<path id="Vector" d="M6 2H2.66667C2.29848 2 2 2.29848 2 2.66667V6C2 6.3682 2.29848 6.66667 2.66667 6.66667H6C6.3682 6.66667 6.66667 6.3682 6.66667 6V2.66667C6.66667 2.29848 6.3682 2 6 2Z" stroke="currentColor" stroke-width="1.33333" stroke-linejoin="round"/>
<path id="Vector_2" d="M6 9.33333H2.66667C2.29848 9.33333 2 9.63179 2 9.99999V13.3333C2 13.7015 2.29848 14 2.66667 14H6C6.3682 14 6.66667 13.7015 6.66667 13.3333V9.99999C6.66667 9.63179 6.3682 9.33333 6 9.33333Z" stroke="currentColor" stroke-width="1.33333" stroke-linejoin="round"/>
<path id="Vector_3" d="M13.3335 2H10.0002C9.63196 2 9.3335 2.29848 9.3335 2.66667V6C9.3335 6.3682 9.63196 6.66667 10.0002 6.66667H13.3335C13.7017 6.66667 14.0002 6.3682 14.0002 6V2.66667C14.0002 2.29848 13.7017 2 13.3335 2Z" stroke="currentColor" stroke-width="1.33333" stroke-linejoin="round"/>
<path id="Vector_4" d="M13.3335 9.33333H10.0002C9.63196 9.33333 9.3335 9.63179 9.3335 9.99999V13.3333C9.3335 13.7015 9.63196 14 10.0002 14H13.3335C13.7017 14 14.0002 13.7015 14.0002 13.3333V9.99999C14.0002 9.63179 13.7017 9.33333 13.3335 9.33333Z" stroke="currentColor" stroke-width="1.33333" stroke-linejoin="round"/>
</g>
</svg>
