<svg xmlns="http://www.w3.org/2000/svg" width="16" height="16" viewBox="0 0 16 16" fill="none">
  <path d="M6.66665 3.3335H1.99998C1.63179 3.3335 1.33331 3.63196 1.33331 4.00016V12.6668C1.33331 13.035 1.63179 13.3335 1.99998 13.3335H14C14.3682 13.3335 14.6666 13.035 14.6666 12.6668V11.8335" stroke="#BCC4D0" stroke-width="1.33333" stroke-linecap="round" stroke-linejoin="round"/>
  <path d="M3.33331 7.6665H5.99998" stroke="#BCC4D0" stroke-width="1.33333" stroke-linecap="round"/>
  <path d="M3.33331 10.3335H11.3333" stroke="#BCC4D0" stroke-width="1.33333" stroke-linecap="round"/>
  <path d="M11.3333 7.3335C12.4379 7.3335 13.3333 6.43807 13.3333 5.3335C13.3333 4.22893 12.4379 3.3335 11.3333 3.3335C10.2287 3.3335 9.33331 4.22893 9.33331 5.3335C9.33331 6.43807 10.2287 7.3335 11.3333 7.3335Z" stroke="#BCC4D0" stroke-width="1.33333" stroke-linecap="round" stroke-linejoin="round"/>
  <path d="M14.6667 9.47306C14.0156 8.20093 12.6667 7.3335 11.3333 7.3335C9.99999 7.3335 9.33572 7.71113 8.65009 8.3335" stroke="#BCC4D0" stroke-width="1.33333" stroke-linecap="round" stroke-linejoin="round"/>
</svg>